<?xml version="1.0" encoding="UTF-8" standalone="no"?>
<svg xmlns="http://www.w3.org/2000/svg" version="1.2" baseProfile="tiny" viewBox="0.00 0.00 326.00 200.00">
<path fill="#69b3e7" d="
  M 303.38 0.00
  L 307.73 0.00
  Q 323.36 3.02 326.00 18.61
  L 326.00 22.74
  C 322.88 42.33 298.21 48.11 287.75 30.95
  C 279.74 17.83 288.73 2.17 303.38 0.00
  Z"
/>
<path fill="#001a70" d="
  M 0.00 162.81
  L 0.00 162.27
  L 27.36 0.66
  A 0.41 0.39 -84.8 0 1 27.75 0.32
  L 68.48 0.32
  A 0.43 0.42 -9.7 0 1 68.88 0.60
  L 101.20 86.24
  Q 101.57 87.20 101.95 86.25
  L 136.12 0.72
  A 0.64 0.64 0.0 0 1 136.71 0.32
  L 232.00 0.32
  Q 232.31 0.32 232.32 0.47
  L 232.32 0.48
  Q 232.33 0.68 232.13 0.69
  C 193.65 3.32 164.61 29.70 159.44 68.49
  C 155.60 97.38 163.42 126.69 186.49 145.49
  Q 205.64 161.09 231.53 162.39
  Q 231.64 162.40 231.64 162.50
  Q 231.63 162.53 231.63 162.55
  Q 231.63 162.60 231.58 162.61
  Q 229.34 162.81 224.00 162.83
  Q 192.52 162.91 161.04 162.81
  Q 160.49 162.81 160.42 162.27
  L 148.83 70.28
  Q 148.61 68.48 147.91 70.15
  L 109.66 162.42
  A 0.69 0.68 10.6 0 1 109.02 162.85
  L 93.04 162.84
  A 0.38 0.36 -10.1 0 1 92.69 162.61
  L 55.98 69.95
  Q 55.39 68.48 55.17 70.04
  L 41.86 162.22
  Q 41.78 162.80 41.20 162.80
  L 0.00 162.81
  Z"
/>
<path fill="#69b3e7" d="
  M 239.73 103.80
  L 270.53 103.80
  Q 271.30 103.80 271.21 104.56
  C 269.49 120.20 257.82 129.40 242.50 130.21
  Q 221.01 131.33 208.99 113.97
  C 195.47 94.44 196.43 65.47 211.90 47.14
  Q 223.98 32.83 243.01 34.52
  C 257.04 35.77 267.07 45.25 271.47 58.24
  A 0.58 0.57 -9.0 0 0 272.02 58.63
  L 322.96 58.80
  A 0.42 0.41 0.0 0 1 323.38 59.21
  L 323.38 162.55
  Q 323.38 162.81 323.11 162.81
  L 287.77 162.80
  Q 287.23 162.80 287.23 162.27
  L 287.23 148.81
  Q 287.23 148.36 287.58 148.07
  Q 311.41 128.45 315.54 97.61
  Q 317.17 85.49 317.31 72.99
  A 0.34 0.34 0.0 0 0 316.97 72.64
  L 239.51 72.65
  A 0.35 0.34 -0.0 0 0 239.16 72.99
  L 239.15 103.23
  Q 239.15 103.80 239.73 103.80
  Z"
/>
<path fill="#001a70" d="
  M 10.87 200.00
  L 7.67 200.00
  Q 0.90 198.59 0.00 190.83
  L 0.00 186.92
  Q 2.37 175.05 14.93 178.88
  Q 15.25 178.98 15.10 179.28
  L 14.24 181.05
  Q 14.12 181.29 13.87 181.18
  C 4.79 177.07 0.87 185.63 3.11 192.97
  C 4.70 198.17 9.35 198.33 13.78 197.14
  Q 14.58 196.93 14.45 197.75
  L 14.33 198.58
  Q 14.23 199.26 13.56 199.40
  L 10.87 200.00
  Z"
/>
<path fill="#001a70" d="
  M 41.48 200.00
  L 38.74 200.00
  C 27.79 198.05 28.25 178.20 39.74 177.91
  C 52.16 177.59 52.76 197.68 41.48 200.00
  Z
  M 46.7737 186.3445
  A 6.08 6.08 0.0 0 0 40.7257 180.2327
  L 39.7257 180.2275
  A 6.08 6.08 0.0 0 0 33.6139 186.2756
  L 33.5863 191.5555
  A 6.08 6.08 0.0 0 0 39.6343 197.6673
  L 40.6343 197.6725
  A 6.08 6.08 0.0 0 0 46.7461 191.6244
  L 46.7737 186.3445
  Z"
/>
<path fill="#001a70" d="
  M 107.14 200.00
  L 103.99 200.00
  L 101.10 199.39
  A 1.11 1.11 0.0 0 1 100.22 198.27
  L 100.25 197.27
  Q 100.27 196.50 100.97 196.81
  Q 103.94 198.15 107.55 197.57
  C 111.33 196.96 111.42 192.40 108.16 190.89
  C 104.64 189.26 100.19 188.03 100.64 183.00
  C 101.18 177.04 107.90 177.18 111.97 178.93
  A 0.46 0.46 0.0 0 1 112.22 179.51
  L 111.74 180.77
  Q 111.58 181.18 111.17 181.04
  Q 105.27 179.05 103.53 181.26
  Q 102.06 183.13 103.15 185.02
  C 105.28 188.73 112.20 187.62 112.74 193.08
  Q 113.29 198.77 107.14 200.00
  Z"
/>
<path fill="#001a70" d="
  M 230.36 192.84
  L 222.80 192.85
  A 0.34 0.34 0.0 0 0 222.48 193.08
  L 220.18 199.53
  A 0.34 0.34 0.0 0 1 219.86 199.75
  L 218.23 199.76
  A 0.34 0.34 0.0 0 1 217.91 199.30
  L 225.58 178.36
  A 0.34 0.34 0.0 0 1 225.89 178.13
  L 227.36 178.09
  A 0.34 0.34 0.0 0 1 227.69 178.31
  L 235.32 199.26
  A 0.34 0.34 0.0 0 1 235.02 199.72
  L 233.38 199.81
  A 0.34 0.34 0.0 0 1 233.04 199.58
  L 230.68 193.06
  A 0.34 0.34 0.0 0 0 230.36 192.84
  Z
  M 223.54 190.27
  A 0.23 0.23 0.0 0 0 223.76 190.58
  L 229.23 190.61
  Q 229.86 190.62 229.66 190.03
  L 226.84 181.78
  Q 226.64 181.18 226.44 181.78
  L 223.54 190.27
  Z"
/>
<path fill="#001a70" d="
  M 326.00 192.83
  L 326.00 195.26
  Q 324.83 199.18 320.37 200.00
  L 317.19 200.00
  L 314.12 199.35
  Q 313.36 199.19 313.39 198.42
  L 313.44 197.26
  Q 313.47 196.53 314.14 196.83
  C 316.71 197.96 322.12 198.83 323.45 195.37
  C 325.05 191.18 318.21 189.54 316.19 188.34
  C 313.57 186.80 313.04 182.85 314.45 180.58
  C 316.62 177.08 321.89 177.50 325.25 178.98
  Q 325.52 179.10 325.41 179.37
  L 324.77 181.06
  Q 324.67 181.31 324.43 181.19
  C 321.92 179.98 317.00 179.10 316.10 182.74
  C 315.55 185.00 316.99 186.20 318.98 187.08
  C 322.46 188.64 325.05 189.46 326.00 192.83
  Z"
/>
<path fill="#001a70" d="
  M 80.66 195.44
  L 80.52 178.73
  Q 80.52 178.23 81.02 178.22
  L 82.23 178.21
  Q 82.75 178.20 82.75 178.73
  L 82.75 199.00
  Q 82.75 199.50 82.28 199.66
  C 81.00 200.09 80.21 199.86 79.49 198.68
  Q 74.40 190.38 69.79 182.61
  Q 69.19 181.61 69.20 182.77
  L 69.29 199.20
  Q 69.29 199.69 68.80 199.72
  L 67.74 199.79
  A 0.56 0.55 -1.5 0 1 67.15 199.24
  L 67.14 178.79
  Q 67.14 178.23 67.71 178.22
  L 69.21 178.22
  Q 69.76 178.21 70.04 178.68
  L 80.28 195.55
  Q 80.67 196.20 80.66 195.44
  Z"
/>
<path fill="#001a70" d="
  M 138.88 200.00
  L 136.15 200.00
  Q 130.15 198.62 130.04 191.24
  Q 129.95 184.81 130.02 178.60
  Q 130.03 178.13 130.49 178.16
  L 131.96 178.24
  Q 132.31 178.26 132.30 178.62
  C 132.27 183.10 131.62 190.57 132.50 194.29
  C 133.69 199.36 142.93 199.25 142.97 192.50
  Q 143.01 185.34 142.99 178.49
  Q 142.99 178.20 143.28 178.20
  L 144.80 178.22
  Q 145.28 178.23 145.29 178.71
  Q 145.29 185.20 145.30 192.00
  Q 145.32 198.66 138.88 200.00
  Z"
/>
<path fill="#001a70" d="
  M 166.58 197.49
  L 174.68 197.48
  A 0.35 0.35 0.0 0 1 175.03 197.84
  L 175.00 199.40
  A 0.35 0.35 0.0 0 1 174.65 199.74
  L 164.28 199.74
  A 0.35 0.35 0.0 0 1 163.93 199.39
  L 163.93 178.55
  A 0.35 0.35 0.0 0 1 164.29 178.20
  L 165.89 178.22
  A 0.35 0.35 0.0 0 1 166.23 178.57
  L 166.23 197.14
  A 0.35 0.35 0.0 0 0 166.58 197.49
  Z"
/>
<path fill="#001a70" d="
  M 195.16 180.40
  L 189.66 180.41
  A 0.40 0.40 0.0 0 1 189.26 180.03
  L 189.21 178.64
  A 0.40 0.40 0.0 0 1 189.61 178.22
  L 203.85 178.22
  A 0.40 0.40 0.0 0 1 204.25 178.62
  L 204.24 179.99
  A 0.40 0.40 0.0 0 1 203.84 180.39
  L 198.29 180.41
  A 0.40 0.40 0.0 0 0 197.89 180.81
  L 197.89 199.38
  A 0.40 0.40 0.0 0 1 197.47 199.78
  L 195.93 199.72
  A 0.40 0.40 0.0 0 1 195.55 199.32
  L 195.56 180.80
  A 0.40 0.40 0.0 0 0 195.16 180.40
  Z"
/>
<path fill="#001a70" d="
  M 265.06 195.59
  L 264.97 178.59
  Q 264.97 178.14 265.41 178.16
  L 266.70 178.22
  Q 267.16 178.24 267.16 178.70
  L 267.16 199.17
  Q 267.16 199.75 266.58 199.75
  L 265.18 199.74
  Q 264.52 199.74 264.18 199.18
  L 253.98 182.31
  Q 253.55 181.61 253.56 182.43
  L 253.74 199.24
  Q 253.74 199.72 253.26 199.73
  L 252.01 199.75
  Q 251.51 199.76 251.51 199.26
  L 251.51 178.74
  Q 251.51 178.23 252.01 178.23
  L 253.63 178.21
  Q 254.16 178.21 254.43 178.66
  L 264.75 195.67
  Q 265.06 196.19 265.06 195.59
  Z"
/>
<path fill="#001a70" d="
  M 289.36 180.38
  L 283.91 180.42
  A 0.40 0.40 0.0 0 1 283.51 180.06
  L 283.36 178.66
  A 0.40 0.40 0.0 0 1 283.76 178.22
  L 298.08 178.22
  A 0.40 0.40 0.0 0 1 298.47 178.63
  L 298.42 180.02
  A 0.40 0.40 0.0 0 1 298.02 180.41
  L 292.47 180.39
  A 0.40 0.40 0.0 0 0 292.07 180.79
  L 292.06 199.36
  A 0.40 0.40 0.0 0 1 291.65 199.76
  L 290.15 199.75
  A 0.40 0.40 0.0 0 1 289.76 199.35
  L 289.76 180.78
  A 0.40 0.40 0.0 0 0 289.36 180.38
  Z"
/>
</svg>
